<?xml version="1.0" standalone="no"?>
<!DOCTYPE svg PUBLIC "-//W3C//DTD SVG 20010904//EN"
 "http://www.w3.org/TR/2001/REC-SVG-20010904/DTD/svg10.dtd">
<svg version="1.0" xmlns="http://www.w3.org/2000/svg"
 width="1459.000000pt" height="1200.000000pt" viewBox="0 0 1459.000000 1200.000000"
 preserveAspectRatio="xMidYMid meet">

<g transform="translate(0.000000,1200.000000) scale(0.100000,-0.100000)"
fill="#000000" stroke="none">
<path d="M5241 11859 c-75 -13 -166 -59 -231 -117 -60 -54 -128 -141 -111
-143 20 -3 26 -5 49 -17 12 -7 22 -10 22 -6 0 3 7 1 15 -6 8 -7 15 -9 15 -5 0
4 7 2 15 -5 8 -7 15 -9 15 -5 0 4 7 2 15 -5 8 -7 15 -9 15 -6 0 4 10 1 23 -6
12 -7 25 -13 30 -14 4 -1 9 -3 12 -4 3 -1 10 -4 15 -5 6 -1 12 -4 15 -5 3 -1
10 -4 15 -5 6 -1 12 -4 15 -5 3 -1 8 -3 13 -5 4 -1 15 -5 25 -8 9 -4 25 -10
35 -14 9 -3 20 -7 25 -8 4 -2 9 -4 12 -5 3 -1 10 -4 15 -5 6 -1 12 -4 15 -5 3
-1 10 -4 15 -5 6 -1 12 -4 15 -5 3 -1 8 -3 13 -4 4 -1 17 -7 30 -14 12 -7 22
-10 22 -6 0 3 7 1 15 -6 8 -7 15 -9 15 -5 0 4 7 2 15 -5 8 -7 15 -9 15 -5 0 4
7 2 15 -5 8 -7 15 -9 15 -6 0 4 10 1 23 -6 12 -7 25 -13 30 -14 4 -1 9 -3 12
-4 3 -1 10 -4 15 -5 6 -1 12 -4 15 -5 3 -1 10 -4 15 -5 6 -1 12 -4 15 -5 3 -1
8 -3 13 -5 4 -1 16 -5 27 -9 45 -17 50 -19 58 -21 4 -2 9 -4 12 -5 3 -1 10 -4
15 -5 6 -1 12 -4 15 -5 3 -1 10 -4 15 -5 6 -1 12 -4 15 -5 3 -1 8 -3 13 -4 4
-1 17 -7 30 -14 12 -7 22 -10 22 -6 0 3 7 1 15 -6 8 -7 15 -9 15 -5 0 4 7 2
15 -5 8 -7 15 -9 15 -5 0 4 7 2 15 -5 8 -7 15 -9 15 -6 0 4 10 1 23 -6 12 -6
27 -13 32 -15 51 -12 133 -49 128 -56 -3 -6 -1 -7 5 -3 14 8 6 30 -55 150
-187 366 -563 616 -852 565z"/>
<path d="M8615 10614 c-205 -29 -338 -58 -505 -110 l-115 -36 -28 -91 c-25
-81 -364 -1131 -500 -1549 -28 -87 -53 -156 -55 -154 -3 4 49 169 375 1174
107 332 193 605 191 607 -2 2 -56 -17 -120 -43 l-117 -46 -72 -221 c-39 -121
-78 -242 -86 -268 -8 -27 -17 -47 -19 -44 -3 3 31 118 76 257 45 139 79 254
76 257 -3 3 -59 -21 -124 -53 l-119 -59 -34 -103 c-18 -57 -35 -100 -36 -95
-2 5 10 48 26 96 16 48 28 87 25 87 -6 0 -126 -65 -157 -84 -12 -8 -40 -23
-61 -35 l-39 -20 -62 -198 c-254 -810 -459 -1436 -472 -1440 -7 -3 2 37 22 98
19 56 32 105 30 109 -3 5 -2 10 3 12 4 1 33 84 65 183 68 209 387 1184 394
1203 8 20 -16 14 -51 -13 -18 -14 -36 -25 -40 -25 -4 0 -22 -11 -39 -24 -18
-13 -52 -35 -77 -49 l-45 -25 -167 -513 -167 -514 -1 -222 0 -223 -1388 -2
-1388 -3 -42 -28 c-23 -15 -51 -45 -62 -67 -20 -39 -20 -49 -20 -3190 l0
-3150 95 0 95 0 0 -85 0 -85 1425 0 1425 0 0 -172 1 -173 56 170 c30 94 57
172 59 174 19 20 5 -36 -51 -212 -52 -163 -65 -217 -63 -256 l3 -50 95 37 94
37 72 220 c40 121 77 221 82 223 5 1 -21 -93 -59 -210 -37 -116 -67 -214 -65
-216 5 -4 116 51 188 95 l58 34 46 147 c48 152 51 159 59 150 3 -2 -15 -65
-40 -138 -25 -73 -43 -135 -41 -138 4 -3 108 70 126 88 3 3 38 34 78 69 40 35
80 78 88 95 8 17 12 22 9 11 -11 -46 186 187 378 448 l117 157 -400 0 -400 0
0 55 0 55 443 1 442 1 102 129 103 129 -393 2 -392 3 0 55 0 55 451 3 451 2
74 66 c203 179 446 303 687 351 118 23 337 23 456 -1 188 -37 297 -79 666
-256 146 -70 321 -150 390 -178 716 -288 1468 -335 1980 -125 332 136 563 356
733 698 211 424 269 979 166 1585 -67 393 -194 742 -364 995 -205 306 -438
484 -765 584 -74 23 -200 63 -280 89 l-145 47 -3 438 -2 437 -1280 0 -1280 0
0 394 0 395 637 1 c350 0 639 2 641 5 7 7 -213 666 -273 820 -273 690 -666
1128 -1156 1288 -161 53 -271 70 -474 73 -104 1 -203 0 -220 -2z m-1323 -941
c-61 -186 -149 -462 -197 -613 -111 -352 -196 -614 -201 -619 -21 -22 1 54 95
340 60 184 151 460 201 614 179 549 204 624 208 620 2 -2 -46 -155 -106 -342z
m513 -497 c-129 -400 -235 -731 -235 -734 0 -3 -3 -3 -6 1 -3 3 87 293 201
644 114 351 221 682 238 737 17 54 32 95 34 90 2 -5 -103 -337 -232 -738z
m-450 -2 c-113 -352 -213 -661 -222 -687 -8 -27 -17 -46 -20 -43 -3 2 47 163
110 358 64 194 164 503 223 685 59 183 109 331 111 329 3 -2 -89 -291 -202
-642z m564 -340 c-66 -209 -125 -383 -130 -389 -12 -12 -7 2 132 427 62 191
114 346 116 344 2 -2 -51 -174 -118 -382z m-540 -280 c-17 -55 -35 -103 -40
-109 -5 -5 2 24 16 65 14 41 30 92 36 114 6 21 12 36 15 33 3 -2 -9 -49 -27
-103z m650 -73 c-7 -23 -14 -39 -16 -37 -3 2 1 23 8 45 7 23 14 39 16 37 3 -2
-1 -23 -8 -45z m-3747 -398 c72 -69 25 -183 -75 -183 -31 0 -46 7 -73 34 -100
100 45 247 148 149z m322 23 c44 -18 66 -52 66 -99 0 -53 -52 -107 -101 -107
-119 0 -155 150 -49 202 42 22 42 22 84 4z m388 -23 c72 -69 25 -183 -75 -183
-31 0 -46 7 -73 34 -100 100 45 247 148 149z m-502 -1098 l0 -55 -130 0 -130
0 0 55 0 55 130 0 130 0 0 -55z m3930 0 l0 -55 -1690 0 -1690 0 0 55 0 55
1690 0 1690 0 0 -55z m620 -5 l0 -50 -230 0 -230 0 0 50 0 50 230 0 230 0 0
-50z m-4550 -375 l0 -55 -130 0 -130 0 0 55 0 55 130 0 130 0 0 -55z m910 0
l0 -55 -180 0 -180 0 0 55 0 55 180 0 180 0 0 -55z m1370 0 l0 -55 -505 0
-505 0 0 55 0 55 505 0 505 0 0 -55z m-2280 -375 l0 -61 -127 3 -128 3 -3 44
c-5 72 -7 71 133 71 l125 0 0 -60z m1935 0 l0 -55 -540 0 -540 0 -3 44 c-6 77
-53 71 545 69 l538 -3 0 -55z m805 0 l0 -50 -325 0 -325 0 0 50 0 50 325 0
325 0 0 -50z m-2740 -375 l0 -55 -130 0 -130 0 0 55 0 55 130 0 130 0 0 -55z
m1430 0 l0 -55 -440 0 -440 0 0 55 0 55 440 0 440 0 0 -55z m2010 0 l0 -55
-900 0 -900 0 0 55 0 55 900 0 900 0 0 -55z m680 0 l0 -55 -240 0 -240 0 0 55
0 55 240 0 240 0 0 -55z m970 0 l0 -55 -335 0 -335 0 0 55 0 55 335 0 335 0 0
-55z m-5090 -375 l0 -61 -127 3 -128 3 -3 44 c-5 72 -7 71 133 71 l125 0 0
-60z m2415 0 l0 -55 -742 -3 -743 -2 0 60 0 60 743 -2 742 -3 0 -55z m695 0
l0 -61 -87 3 -88 3 -3 44 c-5 69 -3 71 93 71 l85 0 0 -60z m770 0 l0 -60 -320
0 -320 0 0 60 0 60 320 0 320 0 0 -60z m-3880 -375 l0 -55 -130 0 -130 0 0 55
0 55 130 0 130 0 0 -55z m1670 0 l0 -55 -560 0 -560 0 0 55 0 55 560 0 560 0
0 -55z m600 -5 l0 -50 -220 0 -220 0 0 50 0 50 220 0 220 0 0 -50z m-2270
-375 l0 -55 -130 0 -130 0 0 55 0 55 130 0 130 0 0 -55z m3240 0 l0 -55 -1345
0 -1345 0 0 55 0 55 1345 0 1345 0 0 -55z m960 0 l0 -55 -342 2 -343 3 -3 53
-3 52 345 0 346 0 0 -55z m1448 3 l-3 -53 -597 -3 -598 -2 0 55 0 55 601 0
600 0 -3 -52z m-5648 -373 l0 -55 -130 0 -130 0 0 55 0 55 130 0 130 0 0 -55z
m1670 0 l0 -55 -295 0 -295 0 0 48 c0 27 3 52 7 55 3 4 136 7 295 7 l288 0 0
-55z m1270 0 l0 -55 -525 0 -525 0 0 55 0 55 525 0 525 0 0 -55z m-2940 -380
l0 -55 -130 0 -130 0 0 55 0 55 130 0 130 0 0 -55z m1390 0 l0 -55 -420 0
-420 0 0 55 0 55 420 0 420 0 0 -55z m3370 0 l0 -55 -1560 0 -1560 0 0 55 0
55 1560 0 1560 0 0 -55z m-4760 -375 l0 -61 -127 3 -128 3 -3 44 c-5 72 -7 71
133 71 l125 0 0 -60z m3200 0 l0 -60 -1135 0 -1135 0 0 60 0 60 1135 0 1135 0
0 -60z m3060 0 l0 -60 -1030 0 -1030 0 0 60 0 60 1030 0 1030 0 0 -60z m-2330
0 l0 -50 -275 0 -275 0 0 50 0 50 275 0 275 0 0 -50z m-3930 -375 l0 -55 -130
0 -130 0 0 55 0 55 130 0 130 0 0 -55z m2180 0 l0 -55 -815 0 -815 0 0 55 0
55 815 0 815 0 0 -55z m1380 0 l0 -55 -570 0 -570 0 0 55 0 55 570 0 570 0 0
-55z m-3560 -375 l0 -61 -127 3 -128 3 -3 44 c-5 72 -7 71 133 71 l125 0 0
-60z m2890 0 l0 -60 -1017 2 -1018 3 -3 44 c-2 24 -1 50 2 57 5 12 165 14
1021 14 l1015 0 0 -60z m-2890 -375 l0 -55 -130 0 -130 0 0 55 0 55 130 0 130
0 0 -55z m910 0 l0 -55 -180 0 -180 0 0 55 0 55 180 0 180 0 0 -55z m1630 0
l0 -55 -675 0 -675 0 0 55 0 55 675 0 675 0 0 -55z"/>
<path d="M6848 9857 c-24 -18 -93 -68 -155 -112 -61 -44 -110 -82 -107 -86 2
-3 4 -163 5 -355 l2 -349 38 114 c21 63 36 117 34 122 -3 4 -1 9 4 11 6 1 12
14 14 28 2 14 7 33 11 42 4 9 9 22 10 30 2 7 6 20 10 28 11 26 184 560 180
560 -1 0 -22 -15 -46 -33z"/>
<path d="M6094 9268 l-19 -23 23 19 c21 18 27 26 19 26 -2 0 -12 -10 -23 -22z"/>
<path d="M9500 2549 c-219 -26 -436 -146 -577 -319 -60 -74 -144 -236 -168
-325 -26 -94 -31 -304 -11 -406 32 -156 107 -303 219 -425 117 -126 281 -221
454 -260 111 -26 301 -23 408 5 306 81 531 296 631 601 26 78 28 98 28 245 1
170 -8 222 -58 347 -145 358 -533 583 -926 537z m340 -450 c0 -6 -75 -201
-167 -435 l-166 -424 -69 0 -68 0 21 53 c11 28 86 219 166 422 80 204 147 376
150 383 6 15 133 17 133 1z m-588 -375 l-83 -76 83 -78 83 -78 -40 -41 c-21
-23 -44 -41 -49 -41 -14 0 -236 221 -236 235 0 5 53 63 117 127 l118 118 45
-45 45 -46 -83 -75z m881 6 c37 -35 67 -71 67 -80 0 -8 -52 -67 -115 -130
l-115 -115 -42 43 -43 42 78 78 77 77 -75 75 c-41 41 -75 79 -75 84 0 6 17 27
37 48 l37 38 51 -47 c27 -26 80 -77 118 -113z"/>
<path d="M11775 2500 c-178 -24 -334 -94 -469 -212 l-39 -34 51 -64 c63 -77
123 -197 154 -305 20 -69 23 -102 22 -235 0 -142 -2 -162 -28 -240 -35 -107
-86 -205 -147 -284 l-48 -61 32 -34 c72 -75 221 -157 357 -197 52 -15 96 -19
220 -18 142 0 162 2 240 28 147 49 232 99 339 200 69 67 135 154 174 231 83
167 110 388 68 569 -54 233 -208 437 -421 559 -68 39 -215 85 -310 96 -93 12
-107 12 -195 1z m408 -628 l47 -47 -218 -218 -217 -217 -138 138 -137 138 50
49 50 49 88 -87 87 -87 165 165 c91 91 167 165 170 165 3 0 27 -21 53 -48z"/>
<path d="M6654 1635 c0 -16 6 -21 31 -21 25 0 31 5 31 21 0 16 -6 21 -31 21
-25 0 -31 -5 -31 -21z m49 -1 c-3 -9 -23 -13 -36 -6 -4 2 -5 7 -2 12 7 11 41
6 38 -6z"/>
<path d="M6654 1575 c0 -16 6 -21 31 -21 25 0 31 5 31 21 0 16 -6 21 -31 21
-25 0 -31 -5 -31 -21z m49 -1 c-3 -9 -23 -13 -36 -6 -4 2 -5 7 -2 12 7 11 41
6 38 -6z"/>
<path d="M6654 1515 c0 -16 6 -21 31 -21 25 0 31 5 31 21 0 16 -6 21 -31 21
-25 0 -31 -5 -31 -21z m49 -1 c-3 -9 -23 -13 -36 -6 -4 2 -5 7 -2 12 7 11 41
6 38 -6z"/>
<path d="M6654 1454 c0 -14 5 -21 16 -19 8 1 20 -1 26 -6 6 -5 11 -4 11 5 0 7
-7 13 -16 12 -9 -1 -17 4 -18 9 -2 6 6 10 16 10 11 0 22 2 25 5 3 3 -10 6 -27
6 -27 0 -33 -4 -33 -22z"/>
<path d="M6644 1394 c0 -12 2 -22 6 -21 3 1 5 -2 5 -8 0 -5 -3 -9 -6 -8 -8 3
-5 -44 3 -52 4 -4 5 1 4 12 -4 23 13 45 28 36 7 -4 6 -1 -1 9 -7 8 -9 18 -5
22 4 4 3 6 -3 4 -5 -1 -10 2 -10 7 0 6 8 9 18 9 10 -1 15 1 12 4 -3 4 -16 7
-28 7 -18 1 -23 -4 -23 -21z"/>
</g>
</svg>
